<?xml version="1.0" standalone="no"?>
<!DOCTYPE svg PUBLIC "-//W3C//DTD SVG 20010904//EN"
 "http://www.w3.org/TR/2001/REC-SVG-20010904/DTD/svg10.dtd">
<svg version="1.0" xmlns="http://www.w3.org/2000/svg"
 width="675.000000pt" height="675.000000pt" viewBox="0 0 675.000000 675.000000"
 preserveAspectRatio="xMidYMid meet">
<metadata>
Created by potrace 1.14, written by Peter Selinger 2001-2017
</metadata>
<g transform="translate(0.000000,675.000000) scale(0.100000,-0.100000)"
fill="#000000" stroke="none">
<path d="M3830 5441 c-63 -22 -141 -98 -159 -153 -5 -18 -197 -690 -426 -1493
-229 -803 -464 -1626 -522 -1830 -113 -392 -122 -442 -90 -516 22 -53 81 -114
134 -140 54 -26 137 -30 197 -10 44 15 120 81 142 122 7 15 76 247 153 516 77
268 316 1105 531 1858 345 1209 391 1376 387 1421 -9 90 -58 165 -136 208 -68
37 -139 43 -211 17z"/>
<path d="M1855 4520 c-25 -12 -221 -201 -537 -517 -477 -479 -497 -500 -512
-552 -20 -69 -20 -96 1 -162 15 -51 43 -81 507 -548 539 -542 538 -541 651
-541 145 1 258 112 258 255 0 115 -5 121 -421 537 l-376 378 376 378 c416 416
421 423 421 537 0 101 -55 186 -150 234 -57 28 -162 29 -218 1z"/>
<path d="M4705 4512 c-119 -65 -169 -214 -112 -335 17 -36 114 -140 399 -425
l377 -377 -378 -382 c-214 -217 -387 -399 -397 -420 -14 -28 -19 -60 -19 -118
0 -70 4 -86 28 -128 33 -55 93 -102 151 -118 57 -16 157 -6 198 19 51 32 1000
987 1023 1030 29 55 28 172 -4 232 -35 68 -971 1002 -1031 1029 -69 31 -171
28 -235 -7z"/>
</g>
</svg>
